<svg xmlns="http://www.w3.org/2000/svg" viewBox="0 0 1400 600" preserveAspectRatio="none">
<defs>
<linearGradient id="bg" x1="0" y1="0" x2="0" y2="1"><stop offset="0" stop-color="#141414"/><stop offset=".45" stop-color="#090909"/><stop offset="1" stop-color="#050505"/></linearGradient>
<linearGradient id="plate" x1="0" y1="0" x2="1" y2="1"><stop offset="0" stop-color="#191919"/><stop offset=".5" stop-color="#0b0b0b"/><stop offset="1" stop-color="#151515"/></linearGradient>
<radialGradient id="screw" cx="35%" cy="30%" r="70%"><stop offset="0" stop-color="#d1d1d1"/><stop offset=".35" stop-color="#767676"/><stop offset=".7" stop-color="#1a1a1a"/><stop offset="1" stop-color="#050505"/></radialGradient>
<filter id="shadow" x="-20%" y="-20%" width="140%" height="140%"><feDropShadow dx="0" dy="12" stdDeviation="12" flood-color="#000" flood-opacity=".72"/></filter>
<pattern id="grain" width="5" height="5" patternUnits="userSpaceOnUse"><circle cx="1" cy="1" r=".45" fill="#fff" opacity=".05"/></pattern>
</defs>
<rect x="10" y="10" width="1380" height="580" rx="3" fill="url(#bg)" stroke="#3a3531" stroke-width="2" filter="url(#shadow)"/>
<rect x="20" y="20" width="1360" height="560" fill="none" stroke="#fff" stroke-opacity=".06"/>
<rect x="10" y="10" width="1380" height="580" fill="url(#grain)" opacity=".2"/>
<rect x="35" y="40" width="430" height="520" rx="2" fill="url(#plate)" stroke="#4b4641" stroke-width="1.5"/>
<rect x="477" y="40" width="610" height="520" rx="2" fill="url(#plate)" stroke="#4b4641" stroke-width="1.5"/>
<rect x="1099" y="40" width="266" height="520" rx="2" fill="url(#plate)" stroke="#4b4641" stroke-width="1.5"/>
<rect x="61" y="94" width="378" height="378" fill="#020202" stroke="#5b554f"/>
<rect x="505" y="78" width="554" height="54" fill="#080808" stroke="#4a443e"/>
<rect x="505" y="350" width="554" height="186" fill="#080808" stroke="#4a443e"/>
<rect x="1122" y="78" width="220" height="56" fill="#080808" stroke="#4a443e"/>
<rect x="1122" y="151" width="220" height="56" fill="#080808" stroke="#4a443e"/>
<rect x="1122" y="224" width="220" height="56" fill="#080808" stroke="#4a443e"/>
<rect x="1122" y="297" width="220" height="56" fill="#080808" stroke="#4a443e"/>
<rect x="1122" y="370" width="220" height="56" fill="#080808" stroke="#4a443e"/>
<rect x="1122" y="449" width="220" height="87" fill="#080808" stroke="#4a443e"/>
<line x1="477" y1="64" x2="1087" y2="64" stroke="#c8311f" stroke-opacity=".32"/>
<line x1="1099" y1="64" x2="1365" y2="64" stroke="#c89438" stroke-opacity=".24"/>
<g fill="url(#screw)" stroke="#000"><circle cx="31" cy="31" r="9"/><circle cx="1369" cy="31" r="9"/><circle cx="31" cy="569" r="9"/><circle cx="1369" cy="569" r="9"/><circle cx="454" cy="55" r="7"/><circle cx="454" cy="545" r="7"/><circle cx="1088" cy="55" r="7"/><circle cx="1088" cy="545" r="7"/></g>
</svg>